{
	"asset":{
		"generator":"Khronos glTF Blender I/O v5.0.21",
		"version":"2.0"
	},
	"scene":0,
	"scenes":[
		{
			"name":"High-Poly",
			"nodes":[
				0
			]
		},
		{
			"name":"Scene"
		}
	],
	"nodes":[
		{
			"mesh":0,
			"name":"BaksoChair.001"
		}
	],
	"meshes":[
		{
			"name":"Cube.017",
			"primitives":[
				{
					"attributes":{
						"POSITION":0,
						"NORMAL":1,
						"TEXCOORD_0":2
					},
					"indices":3
				}
			]
		}
	],
	"accessors":[
		{
			"bufferView":0,
			"componentType":5126,
			"count":8408,
			"max":[
				0.18331433832645416,
				0.5144392848014832,
				0.18331433832645416
			],
			"min":[
				-0.18331433832645416,
				0.00019416018039919436,
				-0.18331433832645416
			],
			"type":"VEC3"
		},
		{
			"bufferView":1,
			"componentType":5126,
			"count":8408,
			"type":"VEC3"
		},
		{
			"bufferView":2,
			"componentType":5126,
			"count":8408,
			"type":"VEC2"
		},
		{
			"bufferView":3,
			"componentType":5123,
			"count":47616,
			"type":"SCALAR"
		}
	],
	"bufferViews":[
		{
			"buffer":0,
			"byteLength":100896,
			"byteOffset":0,
			"target":34962
		},
		{
			"buffer":0,
			"byteLength":100896,
			"byteOffset":100896,
			"target":34962
		},
		{
			"buffer":0,
			"byteLength":67264,
			"byteOffset":201792,
			"target":34962
		},
		{
			"buffer":0,
			"byteLength":95232,
			"byteOffset":269056,
			"target":34963
		}
	],
	"buffers":[
		{
			"byteLength":364288,
			"uri":"BarStool.bin"
		}
	]
}
