{
	"asset":{
		"generator":"Khronos glTF Blender I/O v5.0.21",
		"version":"2.0"
	},
	"scene":0,
	"scenes":[
		{
			"name":"High-Poly",
			"nodes":[
				0
			]
		},
		{
			"name":"Scene"
		}
	],
	"nodes":[
		{
			"mesh":0,
			"name":"ClothingRack.001"
		}
	],
	"meshes":[
		{
			"name":"Cube.021",
			"primitives":[
				{
					"attributes":{
						"POSITION":0,
						"NORMAL":1,
						"TEXCOORD_0":2
					},
					"indices":3
				}
			]
		}
	],
	"accessors":[
		{
			"bufferView":0,
			"componentType":5126,
			"count":34525,
			"max":[
				0.37500008940696716,
				1.1998995542526245,
				0.1900000125169754
			],
			"min":[
				-0.37500008940696716,
				0.00018402944260742515,
				-0.19000005722045898
			],
			"type":"VEC3"
		},
		{
			"bufferView":1,
			"componentType":5126,
			"count":34525,
			"type":"VEC3"
		},
		{
			"bufferView":2,
			"componentType":5126,
			"count":34525,
			"type":"VEC2"
		},
		{
			"bufferView":3,
			"componentType":5123,
			"count":82752,
			"type":"SCALAR"
		}
	],
	"bufferViews":[
		{
			"buffer":0,
			"byteLength":414300,
			"byteOffset":0,
			"target":34962
		},
		{
			"buffer":0,
			"byteLength":414300,
			"byteOffset":414300,
			"target":34962
		},
		{
			"buffer":0,
			"byteLength":276200,
			"byteOffset":828600,
			"target":34962
		},
		{
			"buffer":0,
			"byteLength":165504,
			"byteOffset":1104800,
			"target":34963
		}
	],
	"buffers":[
		{
			"byteLength":1270304,
			"uri":"clothingRack.bin"
		}
	]
}
