{
	"asset":{
		"generator":"Khronos glTF Blender I/O v5.0.21",
		"version":"2.0"
	},
	"scene":0,
	"scenes":[
		{
			"name":"High-Poly",
			"nodes":[
				0
			]
		},
		{
			"name":"Scene"
		}
	],
	"nodes":[
		{
			"mesh":0,
			"name":"FoldableFuturaChair.001"
		}
	],
	"meshes":[
		{
			"name":"Cube.011",
			"primitives":[
				{
					"attributes":{
						"POSITION":0,
						"NORMAL":1,
						"TEXCOORD_0":2
					},
					"indices":3
				}
			]
		}
	],
	"accessors":[
		{
			"bufferView":0,
			"componentType":5126,
			"count":10491,
			"max":[
				0.2174997478723526,
				0.8100521564483643,
				0.39317843317985535
			],
			"min":[
				-0.2174997627735138,
				1.2546777725219727e-05,
				-0.12358270585536957
			],
			"type":"VEC3"
		},
		{
			"bufferView":1,
			"componentType":5126,
			"count":10491,
			"type":"VEC3"
		},
		{
			"bufferView":2,
			"componentType":5126,
			"count":10491,
			"type":"VEC2"
		},
		{
			"bufferView":3,
			"componentType":5123,
			"count":59712,
			"type":"SCALAR"
		}
	],
	"bufferViews":[
		{
			"buffer":0,
			"byteLength":125892,
			"byteOffset":0,
			"target":34962
		},
		{
			"buffer":0,
			"byteLength":125892,
			"byteOffset":125892,
			"target":34962
		},
		{
			"buffer":0,
			"byteLength":83928,
			"byteOffset":251784,
			"target":34962
		},
		{
			"buffer":0,
			"byteLength":119424,
			"byteOffset":335712,
			"target":34963
		}
	],
	"buffers":[
		{
			"byteLength":455136,
			"uri":"FuturaFoldable.bin"
		}
	]
}
