{
	"asset":{
		"generator":"Khronos glTF Blender I/O v5.0.21",
		"version":"2.0"
	},
	"scene":0,
	"scenes":[
		{
			"name":"High-Poly",
			"nodes":[
				0
			]
		},
		{
			"name":"Scene"
		}
	],
	"nodes":[
		{
			"mesh":0,
			"name":"CoveredFuturaChair.001"
		}
	],
	"meshes":[
		{
			"name":"Cube.015",
			"primitives":[
				{
					"attributes":{
						"POSITION":0,
						"NORMAL":1,
						"TEXCOORD_0":2
					},
					"indices":3
				}
			]
		}
	],
	"accessors":[
		{
			"bufferView":0,
			"componentType":5126,
			"count":3459,
			"max":[
				0.2299811691045761,
				0.9627993702888489,
				0.4932904541492462
			],
			"min":[
				-0.2299811840057373,
				1.6868114471435547e-05,
				-0.10044140368700027
			],
			"type":"VEC3"
		},
		{
			"bufferView":1,
			"componentType":5126,
			"count":3459,
			"type":"VEC3"
		},
		{
			"bufferView":2,
			"componentType":5126,
			"count":3459,
			"type":"VEC2"
		},
		{
			"bufferView":3,
			"componentType":5123,
			"count":19536,
			"type":"SCALAR"
		}
	],
	"bufferViews":[
		{
			"buffer":0,
			"byteLength":41508,
			"byteOffset":0,
			"target":34962
		},
		{
			"buffer":0,
			"byteLength":41508,
			"byteOffset":41508,
			"target":34962
		},
		{
			"buffer":0,
			"byteLength":27672,
			"byteOffset":83016,
			"target":34962
		},
		{
			"buffer":0,
			"byteLength":39072,
			"byteOffset":110688,
			"target":34963
		}
	],
	"buffers":[
		{
			"byteLength":149760,
			"uri":"FuturaChairCovered.bin"
		}
	]
}
