{
	"asset":{
		"generator":"Khronos glTF Blender I/O v5.0.21",
		"version":"2.0"
	},
	"scene":0,
	"scenes":[
		{
			"name":"High-Poly",
			"nodes":[
				0
			]
		},
		{
			"name":"Scene"
		}
	],
	"nodes":[
		{
			"mesh":0,
			"name":"FuturaChair.001"
		}
	],
	"meshes":[
		{
			"name":"Cube.008",
			"primitives":[
				{
					"attributes":{
						"POSITION":0,
						"NORMAL":1,
						"TEXCOORD_0":2
					},
					"indices":3
				}
			]
		}
	],
	"accessors":[
		{
			"bufferView":0,
			"componentType":5126,
			"count":2921,
			"max":[
				0.23000013828277588,
				0.9702872037887573,
				0.37510764598846436
			],
			"min":[
				-0.23000013828277588,
				1.683831214904785e-05,
				-0.22489231824874878
			],
			"type":"VEC3"
		},
		{
			"bufferView":1,
			"componentType":5126,
			"count":2921,
			"type":"VEC3"
		},
		{
			"bufferView":2,
			"componentType":5126,
			"count":2921,
			"type":"VEC2"
		},
		{
			"bufferView":3,
			"componentType":5123,
			"count":8376,
			"type":"SCALAR"
		}
	],
	"bufferViews":[
		{
			"buffer":0,
			"byteLength":35052,
			"byteOffset":0,
			"target":34962
		},
		{
			"buffer":0,
			"byteLength":35052,
			"byteOffset":35052,
			"target":34962
		},
		{
			"buffer":0,
			"byteLength":23368,
			"byteOffset":70104,
			"target":34962
		},
		{
			"buffer":0,
			"byteLength":16752,
			"byteOffset":93472,
			"target":34963
		}
	],
	"buffers":[
		{
			"byteLength":110224,
			"uri":"Futuragltf.bin"
		}
	]
}
