{
	"asset":{
		"generator":"Khronos glTF Blender I/O v5.0.21",
		"version":"2.0"
	},
	"scene":0,
	"scenes":[
		{
			"name":"High-Poly",
			"nodes":[
				0
			]
		},
		{
			"name":"Scene"
		}
	],
	"nodes":[
		{
			"mesh":0,
			"name":"FuturaChair.001"
		}
	],
	"meshes":[
		{
			"name":"Cube.008",
			"primitives":[
				{
					"attributes":{
						"POSITION":0,
						"NORMAL":1,
						"TEXCOORD_0":2
					},
					"indices":3
				}
			]
		}
	],
	"accessors":[
		{
			"bufferView":0,
			"componentType":5126,
			"count":69848,
			"max":[
				0.23000016808509827,
				0.9681189656257629,
				0.3744926452636719
			],
			"min":[
				-0.23000016808509827,
				1.683831214904785e-05,
				-0.2229478806257248
			],
			"type":"VEC3"
		},
		{
			"bufferView":1,
			"componentType":5126,
			"count":69848,
			"type":"VEC3"
		},
		{
			"bufferView":2,
			"componentType":5126,
			"count":69848,
			"type":"VEC2"
		},
		{
			"bufferView":3,
			"componentType":5125,
			"count":134016,
			"type":"SCALAR"
		}
	],
	"bufferViews":[
		{
			"buffer":0,
			"byteLength":838176,
			"byteOffset":0,
			"target":34962
		},
		{
			"buffer":0,
			"byteLength":838176,
			"byteOffset":838176,
			"target":34962
		},
		{
			"buffer":0,
			"byteLength":558784,
			"byteOffset":1676352,
			"target":34962
		},
		{
			"buffer":0,
			"byteLength":536064,
			"byteOffset":2235136,
			"target":34963
		}
	],
	"buffers":[
		{
			"byteLength":2771200,
			"uri":"Futura.bin"
		}
	]
}
