{
	"asset":{
		"generator":"Khronos glTF Blender I/O v5.0.21",
		"version":"2.0"
	},
	"scene":0,
	"scenes":[
		{
			"name":"High-Poly",
			"nodes":[
				0
			]
		},
		{
			"name":"Scene"
		}
	],
	"nodes":[
		{
			"mesh":0,
			"name":"IBMTable.001"
		}
	],
	"meshes":[
		{
			"name":"Cube.019",
			"primitives":[
				{
					"attributes":{
						"POSITION":0,
						"NORMAL":1,
						"TEXCOORD_0":2
					},
					"indices":3
				}
			]
		}
	],
	"accessors":[
		{
			"bufferView":0,
			"componentType":5126,
			"count":24952,
			"max":[
				0.5994274616241455,
				0.7499715685844421,
				0.29942744970321655
			],
			"min":[
				-0.5994274020195007,
				-2.8654938432737254e-05,
				-0.29942744970321655
			],
			"type":"VEC3"
		},
		{
			"bufferView":1,
			"componentType":5126,
			"count":24952,
			"type":"VEC3"
		},
		{
			"bufferView":2,
			"componentType":5126,
			"count":24952,
			"type":"VEC2"
		},
		{
			"bufferView":3,
			"componentType":5123,
			"count":63168,
			"type":"SCALAR"
		}
	],
	"bufferViews":[
		{
			"buffer":0,
			"byteLength":299424,
			"byteOffset":0,
			"target":34962
		},
		{
			"buffer":0,
			"byteLength":299424,
			"byteOffset":299424,
			"target":34962
		},
		{
			"buffer":0,
			"byteLength":199616,
			"byteOffset":598848,
			"target":34962
		},
		{
			"buffer":0,
			"byteLength":126336,
			"byteOffset":798464,
			"target":34963
		}
	],
	"buffers":[
		{
			"byteLength":924800,
			"uri":"IBM.bin"
		}
	]
}
