{
	"asset":{
		"generator":"Khronos glTF Blender I/O v5.0.21",
		"version":"2.0"
	},
	"scene":0,
	"scenes":[
		{
			"name":"High-Poly",
			"nodes":[
				0
			]
		},
		{
			"name":"Scene"
		}
	],
	"nodes":[
		{
			"mesh":0,
			"name":"R8Table.001"
		}
	],
	"meshes":[
		{
			"name":"Cube.018",
			"primitives":[
				{
					"attributes":{
						"POSITION":0,
						"NORMAL":1,
						"TEXCOORD_0":2
					},
					"indices":3
				}
			]
		}
	],
	"accessors":[
		{
			"bufferView":0,
			"componentType":5126,
			"count":26875,
			"max":[
				0.4999999701976776,
				0.7500131726264954,
				0.20941661298274994
			],
			"min":[
				-0.5000002384185791,
				1.2964010238647461e-05,
				-0.2905835509300232
			],
			"type":"VEC3"
		},
		{
			"bufferView":1,
			"componentType":5126,
			"count":26875,
			"type":"VEC3"
		},
		{
			"bufferView":2,
			"componentType":5126,
			"count":26875,
			"type":"VEC2"
		},
		{
			"bufferView":3,
			"componentType":5123,
			"count":58944,
			"type":"SCALAR"
		}
	],
	"bufferViews":[
		{
			"buffer":0,
			"byteLength":322500,
			"byteOffset":0,
			"target":34962
		},
		{
			"buffer":0,
			"byteLength":322500,
			"byteOffset":322500,
			"target":34962
		},
		{
			"buffer":0,
			"byteLength":215000,
			"byteOffset":645000,
			"target":34962
		},
		{
			"buffer":0,
			"byteLength":117888,
			"byteOffset":860000,
			"target":34963
		}
	],
	"buffers":[
		{
			"byteLength":977888,
			"uri":"r8.bin"
		}
	]
}
