{
	"asset":{
		"generator":"Khronos glTF Blender I/O v5.0.21",
		"version":"2.0"
	},
	"scene":0,
	"scenes":[
		{
			"name":"High-Poly",
			"nodes":[
				0
			]
		},
		{
			"name":"Scene"
		}
	],
	"nodes":[
		{
			"mesh":0,
			"name":"RoundCoffeeTable.001"
		}
	],
	"meshes":[
		{
			"name":"Cylinder.005",
			"primitives":[
				{
					"attributes":{
						"POSITION":0,
						"NORMAL":1,
						"TEXCOORD_0":2
					},
					"indices":3
				}
			]
		}
	],
	"accessors":[
		{
			"bufferView":0,
			"componentType":5126,
			"count":3804,
			"max":[
				0.2923879623413086,
				0.7200036644935608,
				0.2923879623413086
			],
			"min":[
				-0.2923879623413086,
				3.5667151223606197e-06,
				-0.2923879623413086
			],
			"type":"VEC3"
		},
		{
			"bufferView":1,
			"componentType":5126,
			"count":3804,
			"type":"VEC3"
		},
		{
			"bufferView":2,
			"componentType":5126,
			"count":3804,
			"type":"VEC2"
		},
		{
			"bufferView":3,
			"componentType":5123,
			"count":22272,
			"type":"SCALAR"
		}
	],
	"bufferViews":[
		{
			"buffer":0,
			"byteLength":45648,
			"byteOffset":0,
			"target":34962
		},
		{
			"buffer":0,
			"byteLength":45648,
			"byteOffset":45648,
			"target":34962
		},
		{
			"buffer":0,
			"byteLength":30432,
			"byteOffset":91296,
			"target":34962
		},
		{
			"buffer":0,
			"byteLength":44544,
			"byteOffset":121728,
			"target":34963
		}
	],
	"buffers":[
		{
			"byteLength":166272,
			"uri":"roundCoffee.bin"
		}
	]
}
