{
	"asset":{
		"generator":"Khronos glTF Blender I/O v5.0.21",
		"version":"2.0"
	},
	"scene":0,
	"scenes":[
		{
			"name":"High-Poly",
			"nodes":[
				0
			]
		},
		{
			"name":"Scene"
		}
	],
	"nodes":[
		{
			"mesh":0,
			"name":"SquareCoffeeTable.001"
		}
	],
	"meshes":[
		{
			"name":"Cylinder.004",
			"primitives":[
				{
					"attributes":{
						"POSITION":0,
						"NORMAL":1,
						"TEXCOORD_0":2
					},
					"indices":3
				}
			]
		}
	],
	"accessors":[
		{
			"bufferView":0,
			"componentType":5126,
			"count":17556,
			"max":[
				0.30000007152557373,
				0.7199928760528564,
				0.30000007152557373
			],
			"min":[
				-0.30000007152557373,
				-7.34243803890422e-06,
				-0.30000007152557373
			],
			"type":"VEC3"
		},
		{
			"bufferView":1,
			"componentType":5126,
			"count":17556,
			"type":"VEC3"
		},
		{
			"bufferView":2,
			"componentType":5126,
			"count":17556,
			"type":"VEC2"
		},
		{
			"bufferView":3,
			"componentType":5123,
			"count":52992,
			"type":"SCALAR"
		}
	],
	"bufferViews":[
		{
			"buffer":0,
			"byteLength":210672,
			"byteOffset":0,
			"target":34962
		},
		{
			"buffer":0,
			"byteLength":210672,
			"byteOffset":210672,
			"target":34962
		},
		{
			"buffer":0,
			"byteLength":140448,
			"byteOffset":421344,
			"target":34962
		},
		{
			"buffer":0,
			"byteLength":105984,
			"byteOffset":561792,
			"target":34963
		}
	],
	"buffers":[
		{
			"byteLength":667776,
			"uri":"squareCoffee.bin"
		}
	]
}
