{
	"asset":{
		"generator":"Khronos glTF Blender I/O v5.0.21",
		"version":"2.0"
	},
	"scene":0,
	"scenes":[
		{
			"name":"High-Poly",
			"nodes":[
				0
			]
		},
		{
			"name":"Scene"
		}
	],
	"nodes":[
		{
			"mesh":0,
			"name":"StandingMirror.001"
		}
	],
	"meshes":[
		{
			"name":"Cube.022",
			"primitives":[
				{
					"attributes":{
						"POSITION":0,
						"NORMAL":1,
						"TEXCOORD_0":2
					},
					"indices":3
				}
			]
		}
	],
	"accessors":[
		{
			"bufferView":0,
			"componentType":5126,
			"count":9488,
			"max":[
				0.2500000298023224,
				1.1846446990966797,
				0.15473303198814392
			],
			"min":[
				-0.25,
				0.0006966835353523493,
				-0.20203302800655365
			],
			"type":"VEC3"
		},
		{
			"bufferView":1,
			"componentType":5126,
			"count":9488,
			"type":"VEC3"
		},
		{
			"bufferView":2,
			"componentType":5126,
			"count":9488,
			"type":"VEC2"
		},
		{
			"bufferView":3,
			"componentType":5123,
			"count":19584,
			"type":"SCALAR"
		}
	],
	"bufferViews":[
		{
			"buffer":0,
			"byteLength":113856,
			"byteOffset":0,
			"target":34962
		},
		{
			"buffer":0,
			"byteLength":113856,
			"byteOffset":113856,
			"target":34962
		},
		{
			"buffer":0,
			"byteLength":75904,
			"byteOffset":227712,
			"target":34962
		},
		{
			"buffer":0,
			"byteLength":39168,
			"byteOffset":303616,
			"target":34963
		}
	],
	"buffers":[
		{
			"byteLength":342784,
			"uri":"standingMirror.bin"
		}
	]
}
