{
	"asset":{
		"generator":"Khronos glTF Blender I/O v5.0.21",
		"version":"2.0"
	},
	"scene":0,
	"scenes":[
		{
			"name":"High-Poly",
			"nodes":[
				0
			]
		},
		{
			"name":"Scene"
		}
	],
	"nodes":[
		{
			"mesh":0,
			"name":"TiffanyChair.001"
		}
	],
	"meshes":[
		{
			"name":"Cube.006",
			"primitives":[
				{
					"attributes":{
						"POSITION":0,
						"NORMAL":1,
						"TEXCOORD_0":2
					},
					"indices":3
				}
			]
		}
	],
	"accessors":[
		{
			"bufferView":0,
			"componentType":5126,
			"count":57096,
			"max":[
				0.22436168789863586,
				0.8615916967391968,
				0.2008470743894577
			],
			"min":[
				-0.22436168789863586,
				2.1904710592934862e-05,
				-0.20015642046928406
			],
			"type":"VEC3"
		},
		{
			"bufferView":1,
			"componentType":5126,
			"count":57096,
			"type":"VEC3"
		},
		{
			"bufferView":2,
			"componentType":5126,
			"count":57096,
			"type":"VEC2"
		},
		{
			"bufferView":3,
			"componentType":5123,
			"count":138816,
			"type":"SCALAR"
		}
	],
	"bufferViews":[
		{
			"buffer":0,
			"byteLength":685152,
			"byteOffset":0,
			"target":34962
		},
		{
			"buffer":0,
			"byteLength":685152,
			"byteOffset":685152,
			"target":34962
		},
		{
			"buffer":0,
			"byteLength":456768,
			"byteOffset":1370304,
			"target":34962
		},
		{
			"buffer":0,
			"byteLength":277632,
			"byteOffset":1827072,
			"target":34963
		}
	],
	"buffers":[
		{
			"byteLength":2104704,
			"uri":"TiffanyChair.bin"
		}
	]
}
