{
	"asset":{
		"generator":"Khronos glTF Blender I/O v5.0.21",
		"version":"2.0"
	},
	"scene":0,
	"scenes":[
		{
			"name":"High-Poly",
			"nodes":[
				0
			]
		},
		{
			"name":"Scene"
		}
	],
	"nodes":[
		{
			"mesh":0,
			"name":"TVStand.001"
		}
	],
	"meshes":[
		{
			"name":"Cube.020",
			"primitives":[
				{
					"attributes":{
						"POSITION":0,
						"NORMAL":1,
						"TEXCOORD_0":2
					},
					"indices":3
				}
			]
		}
	],
	"accessors":[
		{
			"bufferView":0,
			"componentType":5126,
			"count":2200,
			"max":[
				0.44999995827674866,
				1.2000019550323486,
				0.4009196162223816
			],
			"min":[
				-0.44999995827674866,
				1.817941665649414e-06,
				-0.1990804672241211
			],
			"type":"VEC3"
		},
		{
			"bufferView":1,
			"componentType":5126,
			"count":2200,
			"type":"VEC3"
		},
		{
			"bufferView":2,
			"componentType":5126,
			"count":2200,
			"type":"VEC2"
		},
		{
			"bufferView":3,
			"componentType":5123,
			"count":8448,
			"type":"SCALAR"
		}
	],
	"bufferViews":[
		{
			"buffer":0,
			"byteLength":26400,
			"byteOffset":0,
			"target":34962
		},
		{
			"buffer":0,
			"byteLength":26400,
			"byteOffset":26400,
			"target":34962
		},
		{
			"buffer":0,
			"byteLength":17600,
			"byteOffset":52800,
			"target":34962
		},
		{
			"buffer":0,
			"byteLength":16896,
			"byteOffset":70400,
			"target":34963
		}
	],
	"buffers":[
		{
			"byteLength":87296,
			"uri":"tvStand.bin"
		}
	]
}
